<svg version="1.1" id="Layer_1" xmlns="http://www.w3.org/2000/svg" xmlns:xlink="http://www.w3.org/1999/xlink" x="0px" y="0px"
	 width="100%" viewBox="0 0 192 192" enable-background="new 0 0 192 192" xml:space="preserve">
<path fill="#6C546F" opacity="1.000000" stroke="none" 
	d="
M57.000000,193.000000 
	C38.347519,193.000000 19.695042,193.000000 1.021281,193.000000 
	C1.021281,129.062836 1.021281,65.125656 1.021281,1.094242 
	C64.888405,1.094242 128.776993,1.094242 193.000000,1.094242 
	C193.000000,46.020344 193.000000,91.041512 192.532455,136.531342 
	C187.128265,137.000000 182.191620,137.000000 177.039825,137.000000 
	C177.039825,140.083282 177.039825,142.560501 176.585815,145.021851 
	C173.792526,145.005997 171.453262,145.005997 169.039795,145.005997 
	C169.039795,148.193802 169.039795,150.615768 168.594971,153.021881 
	C165.780579,153.022598 163.411026,153.039169 161.027924,152.583801 
	C161.014374,144.545486 161.014374,136.979126 161.014374,129.365189 
	C164.028656,129.067383 166.273544,128.845581 168.969772,128.579178 
	C168.969772,120.511719 168.969772,112.747513 168.981323,104.516220 
	C168.992874,91.137459 168.992874,78.225769 168.992874,65.344582 
	C165.858841,65.051888 163.603027,64.841209 161.305298,64.626617 
	C161.062424,61.935585 160.858856,59.679901 160.645721,57.318409 
	C158.013733,57.069538 155.757904,56.856239 153.331055,56.626770 
	C153.096924,54.090530 152.888657,51.834488 152.658661,49.343132 
	C150.041580,49.086655 147.656616,48.852921 145.308960,48.622849 
	C145.049377,45.862694 144.837433,43.608994 144.576187,40.830917 
	C139.266968,40.830917 134.355057,40.830917 129.341873,40.830917 
	C129.071198,38.015137 128.854202,35.757961 128.598984,33.102909 
	C120.530441,33.102909 112.739288,33.102909 104.484566,33.059326 
	C88.476273,33.015747 72.931564,33.015747 57.232887,33.015747 
	C57.055149,30.101765 56.909031,27.706223 56.761189,25.282404 
	C46.036526,25.282404 35.668049,25.282404 25.102924,25.282404 
	C25.102924,28.024551 25.102924,30.486351 25.066586,33.397346 
	C25.030249,36.085255 25.030249,38.323971 25.030249,40.978756 
	C28.198858,40.978756 30.643036,40.978756 33.050888,40.982098 
	C33.014565,40.985439 33.021248,40.912792 33.014927,41.367188 
	C33.008606,44.038425 33.008606,46.255260 33.008606,48.998909 
	C36.045261,48.998909 38.439312,48.998909 40.903500,49.446262 
	C40.973640,52.153999 40.973640,54.414383 40.973640,56.793602 
	C38.042210,56.966373 35.646973,57.107544 32.833359,57.273373 
	C32.833359,62.767479 32.833359,67.884285 32.395485,73.000778 
	C29.764416,73.000458 27.571224,73.000458 25.102905,73.000458 
	C25.102905,76.229187 25.102905,78.640526 25.059326,81.515442 
	C25.018944,92.292130 25.022144,102.605247 25.017105,113.392059 
	C25.008865,121.422997 25.008865,128.980240 25.008865,136.625763 
	C27.975334,136.920700 30.216812,137.143570 33.143005,137.434509 
	C33.143005,145.325470 33.143005,152.999237 33.143005,160.606995 
	C36.096039,160.606995 38.324181,160.606995 40.679897,160.606995 
	C40.931713,157.990311 41.147606,155.746902 41.413704,152.981812 
	C44.129063,152.981812 46.573505,152.981812 49.011421,153.431946 
	C49.151642,161.322464 47.540394,161.095856 56.452202,160.948868 
	C56.614632,160.946182 56.776802,160.927795 56.959011,161.369324 
	C57.020252,164.231888 57.061577,166.641876 57.059326,169.515442 
	C57.010498,177.652664 57.005249,185.326324 57.000000,193.000000 
z"/>
<path fill="#6C546F" opacity="1.000000" stroke="none" 
	d="
M193.000000,145.000000 
	C193.000000,160.926727 193.000000,176.853470 193.000000,193.000000 
	C177.313126,193.000000 161.625214,193.000000 145.468658,192.558105 
	C145.015152,189.760574 145.030304,187.404938 145.490234,185.032303 
	C148.141205,185.015305 150.347382,185.015305 153.049225,185.015305 
	C153.049225,181.856628 153.049225,179.451050 153.494339,177.030273 
	C156.144409,177.015060 158.349365,177.015060 161.045456,177.015060 
	C161.045456,173.858063 161.045456,171.453674 161.490494,169.032288 
	C164.155426,169.015289 166.375305,169.015289 168.978745,169.015289 
	C168.978745,165.778900 168.978745,163.345840 168.982086,160.949097 
	C168.985443,160.985428 168.912796,160.978729 169.367767,160.985046 
	C172.066528,160.991379 174.310318,160.991379 176.978745,160.991379 
	C176.978745,157.807022 176.978745,155.359909 176.982086,152.949097 
	C176.985443,152.985428 176.912796,152.978729 177.367188,152.985046 
	C180.038422,152.991379 182.255264,152.991379 184.998901,152.991379 
	C184.998901,149.954727 184.998901,147.560669 185.438232,145.096497 
	C188.251709,145.017593 190.625854,145.008789 193.000000,145.000000 
z"/>
<path fill="#FFFFFF" opacity="1.000000" stroke="none" 
	d="
M57.444164,193.000000 
	C57.005249,185.326324 57.010498,177.652664 57.501053,169.493988 
	C60.237846,169.009003 62.489330,169.009003 65.166649,169.009003 
	C65.166649,172.078445 65.166649,174.538330 65.096512,177.438248 
	C65.073135,180.252808 65.119896,182.627304 65.096268,185.440918 
	C65.017265,188.253342 65.008636,190.626678 65.000000,193.000000 
	C62.629444,193.000000 60.258884,193.000000 57.444164,193.000000 
z"/>
<path fill="#FFFFFF" opacity="1.000000" stroke="none" 
	d="
M193.000000,144.555832 
	C190.625854,145.008789 188.251709,145.017593 184.997162,145.026123 
	C181.731857,145.004593 179.346924,144.983307 176.981369,144.981049 
	C177.000732,145.000061 177.039825,145.037720 177.039825,145.037720 
	C177.039825,142.560501 177.039825,140.083282 177.039825,137.000000 
	C182.191620,137.000000 187.128265,137.000000 192.532455,137.000000 
	C193.000000,139.370560 193.000000,141.741104 193.000000,144.555832 
z"/>
<path fill="#FFFFFF" opacity="1.000000" stroke="none" 
	d="
M137.000000,193.000000 
	C131.977905,193.000000 126.955818,193.000000 121.466858,192.557678 
	C121.013199,189.756958 121.026405,187.398544 121.503571,185.022308 
	C126.989876,184.995499 132.012207,184.986511 137.019958,185.422943 
	C137.003571,188.245575 137.001785,190.622787 137.000000,193.000000 
z"/>
<path fill="#6C546F" opacity="1.000000" stroke="none" 
	d="
M89.000000,193.000000 
	C83.977905,193.000000 78.955818,193.000000 73.466858,192.554794 
	C72.992477,189.732361 72.984947,187.355118 73.446426,184.986023 
	C78.928467,185.012527 83.941498,185.030899 88.969742,185.489990 
	C88.989967,188.287155 88.994987,190.643585 89.000000,193.000000 
z"/>
<path fill="#B74646" opacity="1.000000" stroke="none" 
	d="
M89.466866,193.000000 
	C88.994987,190.643585 88.989967,188.287155 88.997704,185.460663 
	C89.010452,184.990601 89.067230,184.932755 89.528915,184.961334 
	C95.008148,184.979691 100.025696,184.969467 105.024979,185.405701 
	C105.004471,188.234787 105.002235,190.617386 105.000000,193.000000 
	C99.977905,193.000000 94.955818,193.000000 89.466866,193.000000 
z"/>
<path fill="#B74646" opacity="1.000000" stroke="none" 
	d="
M137.444168,193.000000 
	C137.001785,190.622787 137.003571,188.245575 137.005966,185.454025 
	C137.006577,185.039688 136.939545,185.027267 137.384735,185.015778 
	C140.197540,184.980438 142.565155,184.956604 144.961121,184.961731 
	C144.989502,184.990662 145.045456,185.049301 145.045456,185.049301 
	C145.030304,187.404938 145.015152,189.760574 145.000000,192.558105 
	C142.629440,193.000000 140.258896,193.000000 137.444168,193.000000 
z"/>
<path fill="#343951" opacity="1.000000" stroke="none" 
	d="
M121.039612,185.040131 
	C121.026405,187.398544 121.013199,189.756958 121.000000,192.557678 
	C118.629440,193.000000 116.258888,193.000000 113.444168,192.560120 
	C112.962852,189.779434 112.925705,187.438614 113.338913,185.067322 
	C116.185112,185.016846 118.580963,184.996857 120.992538,184.992645 
	C121.008270,185.008423 121.039619,185.040131 121.039612,185.040131 
z"/>
<path fill="#FFFFFF" opacity="1.000000" stroke="none" 
	d="
M112.888557,185.097809 
	C112.925705,187.438614 112.962852,189.779434 113.000000,192.560120 
	C110.629440,193.000000 108.258888,193.000000 105.444168,193.000000 
	C105.002235,190.617386 105.004471,188.234787 105.004410,185.425430 
	C105.002106,184.998688 104.961418,185.038589 105.405914,185.021515 
	C108.214584,185.049744 110.578766,185.095047 112.948318,185.105621 
	C112.953690,185.070908 112.888557,185.097809 112.888557,185.097809 
z"/>
<path fill="#B74646" opacity="1.000000" stroke="none" 
	d="
M72.977417,184.977890 
	C72.984947,187.355118 72.992477,189.732361 73.000000,192.554794 
	C70.629440,193.000000 68.258888,193.000000 65.444168,193.000000 
	C65.008636,190.626678 65.017265,188.253342 65.529892,185.440369 
	C68.364632,185.009201 70.695366,185.017654 73.014076,185.014130 
	C73.002045,185.002151 72.977417,184.977890 72.977417,184.977890 
z"/>
<path fill="#343951" opacity="1.000000" stroke="none" 
	d="
M168.969772,104.983299 
	C168.969772,112.747513 168.969772,120.511719 168.969772,128.579178 
	C166.273544,128.845581 164.028656,129.067383 161.014374,129.365189 
	C161.014374,136.979126 161.014374,144.545486 161.017593,152.563065 
	C161.020813,153.014282 161.058090,153.038666 160.605225,153.026657 
	C157.924332,153.014648 155.696304,153.014648 153.353271,153.014648 
	C153.082535,150.035065 152.880173,147.807999 152.621384,144.960022 
	C149.993713,144.960022 147.577316,144.960022 145.089569,144.500885 
	C144.974976,139.060440 144.931747,134.079102 145.344574,129.067230 
	C148.050278,129.036697 150.299927,129.036697 152.655472,129.036697 
	C152.655472,125.994102 152.655472,123.766800 152.655472,121.017960 
	C149.873825,121.017960 147.427826,121.017960 144.987701,120.566795 
	C144.993591,117.870743 144.993591,115.625854 144.993591,113.000000 
	C141.656754,113.000000 139.181107,113.026169 136.706268,112.992661 
	C134.211395,112.958893 131.717331,112.865875 129.143585,112.372635 
	C128.965652,109.831009 128.867050,107.715561 128.760925,105.438751 
	C126.042915,105.438751 123.690681,105.438751 121.248055,105.438751 
	C121.072914,108.177261 120.925133,110.487968 120.327896,112.868439 
	C112.326607,112.891754 104.774788,112.845306 97.143707,112.373886 
	C96.945328,109.724472 96.826195,107.500023 96.704926,105.235840 
	C93.808273,105.066658 91.515610,104.932755 89.143600,104.372665 
	C88.965645,101.831047 88.867043,99.715599 88.760910,97.438751 
	C86.034325,97.438751 83.683243,97.438751 81.248062,97.438751 
	C81.072914,100.177261 80.925133,102.487968 80.348373,104.867157 
	C77.699677,105.054169 75.479942,105.172707 73.239044,105.292374 
	C73.059242,108.215721 72.918297,110.507195 72.348053,112.867180 
	C64.982025,113.088646 64.981918,113.088646 65.006462,120.050186 
	C65.007599,120.372787 65.014183,120.695366 64.567810,121.011429 
	C61.893299,121.004890 59.669212,121.004890 57.038700,121.004890 
	C57.038700,124.199242 57.038700,126.628662 57.020119,129.029785 
	C57.001541,129.001480 57.058090,129.038681 56.604202,129.026550 
	C53.913822,129.014435 51.677326,129.014435 48.979603,129.014435 
	C48.979603,137.540558 48.979603,145.280487 48.988998,153.011002 
	C48.998398,153.001602 49.017948,152.981812 49.017948,152.981812 
	C46.573505,152.981812 44.129063,152.981812 41.413704,152.981812 
	C41.147606,155.746902 40.931713,157.990311 40.679897,160.606995 
	C38.324181,160.606995 36.096039,160.606995 33.143005,160.606995 
	C33.143005,152.999237 33.143005,145.325470 33.143005,137.434509 
	C30.216812,137.143570 27.975334,136.920700 25.008865,136.625763 
	C25.008865,128.980240 25.008865,121.422997 25.467037,113.428162 
	C28.187668,112.990570 30.450129,112.990570 32.816975,112.990570 
	C32.969913,110.059837 33.095615,107.651085 33.226154,105.149696 
	C35.973011,105.024055 38.386211,104.913673 41.164879,104.786583 
	C41.164879,101.950768 41.164879,99.481468 41.622704,97.008537 
	C49.532986,97.004906 56.985439,97.004906 64.649467,97.004906 
	C64.916077,94.073654 65.133690,91.681068 65.393143,88.828468 
	C73.400955,88.828468 80.989540,88.828468 88.704979,88.828468 
	C88.927475,86.062416 89.109428,83.800301 89.342407,80.903946 
	C94.688431,80.903946 99.808220,80.903946 105.400551,80.937912 
	C110.790421,80.971886 115.707748,80.971886 120.637802,80.971886 
	C120.933365,84.060188 121.148438,86.307426 121.414558,89.088135 
	C129.318924,89.088135 136.878738,89.088135 144.619034,89.088135 
	C144.923447,92.009895 145.170624,94.382278 145.449158,97.055580 
	C150.935944,97.055580 155.910522,97.055580 160.925964,97.499542 
	C160.966812,100.161926 160.966812,102.380356 160.966812,104.983299 
	C164.128387,104.983299 166.549072,104.983299 168.969772,104.983299 
z"/>
<path fill="#FFFFFF" opacity="1.000000" stroke="none" 
	d="
M41.164879,97.012169 
	C41.164879,99.481468 41.164879,101.950768 41.164879,104.786583 
	C38.386211,104.913673 35.973011,105.024055 33.226154,105.149696 
	C33.095615,107.651085 32.969913,110.059837 32.816975,112.990570 
	C30.450129,112.990570 28.187668,112.990570 25.475277,112.954468 
	C25.022144,102.605247 25.018944,92.292130 25.501028,81.494003 
	C28.238028,81.008995 30.489744,81.008995 32.833359,81.008995 
	C32.833359,77.920105 32.833359,75.460602 32.833359,73.001099 
	C32.833359,67.884285 32.833359,62.767479 32.833359,57.273373 
	C35.646973,57.107544 38.042210,56.966373 40.973640,56.793602 
	C40.973640,54.414383 40.973640,52.153999 40.973839,48.999580 
	C40.974041,45.836834 40.974041,43.568127 40.974041,40.912792 
	C37.961609,40.912792 35.491428,40.912792 33.021248,40.912792 
	C33.021248,40.912792 33.014565,40.985439 33.013908,40.532944 
	C33.013248,37.826012 33.013248,35.571575 33.013248,32.948151 
	C30.003214,32.948151 27.553070,32.948151 25.102924,32.948151 
	C25.102924,30.486351 25.102924,28.024551 25.102924,25.282404 
	C35.668049,25.282404 46.036526,25.282404 56.761189,25.282404 
	C56.909031,27.706223 57.055149,30.101765 57.232887,33.015747 
	C72.931564,33.015747 88.476273,33.015747 104.505981,33.490410 
	C104.971893,36.287266 104.952820,38.609463 104.470345,40.960728 
	C96.412758,40.989799 88.818565,40.989799 81.207741,40.989799 
	C81.030579,44.044399 80.891327,46.445335 80.735069,49.139469 
	C75.309082,49.139469 70.366814,49.139469 65.192863,49.139469 
	C65.050430,51.859215 64.924400,54.265743 64.791321,56.806919 
	C62.054871,56.963181 59.646999,57.100677 56.775726,57.264637 
	C56.775726,60.032875 56.775726,62.430908 56.775726,65.131905 
	C54.002697,65.131905 51.724228,65.131905 49.161942,65.131905 
	C49.042877,67.837311 48.936890,70.245560 48.825420,72.778419 
	C46.077431,72.954254 43.674995,73.107979 41.164879,73.268593 
	C41.164879,81.421951 41.164879,89.217064 41.164879,97.012169 
z"/>
<path fill="#B74646" opacity="1.000000" stroke="none" 
	d="
M104.933739,40.931656 
	C104.952820,38.609463 104.971893,36.287266 104.969559,33.533989 
	C112.739288,33.102909 120.530441,33.102909 128.598984,33.102909 
	C128.854202,35.757961 129.071198,38.015137 129.341873,40.830917 
	C134.355057,40.830917 139.266968,40.830917 144.576187,40.830917 
	C144.837433,43.608994 145.049377,45.862694 145.308960,48.622849 
	C147.656616,48.852921 150.041580,49.086655 152.658661,49.343132 
	C152.888657,51.834488 153.096924,54.090530 153.331055,56.626770 
	C155.757904,56.856239 158.013733,57.069538 160.645721,57.318409 
	C160.858856,59.679901 161.062424,61.935585 161.305298,64.626617 
	C163.603027,64.841209 165.858841,65.051888 168.992874,65.344582 
	C168.992874,78.225769 168.992874,91.137459 168.981323,104.516220 
	C166.549072,104.983299 164.128387,104.983299 160.966812,104.983299 
	C160.966812,102.380356 160.966812,100.161926 160.967529,97.027458 
	C160.968262,88.530220 160.968262,80.949028 160.968262,73.337868 
	C157.943100,73.063278 155.689331,72.858704 153.317688,72.643433 
	C153.075317,70.027542 152.866531,67.774040 152.607849,64.981956 
	C149.902985,64.981956 147.451004,64.981956 144.998901,64.991600 
	C144.998764,65.001244 145.018066,65.001007 145.012054,64.550705 
	C145.006058,61.867126 145.006058,59.633842 145.006058,56.874405 
	C139.301224,56.874405 134.416016,56.874405 129.356781,56.874405 
	C129.075119,53.991467 128.843643,51.621998 128.616989,49.302032 
	C125.856995,49.048855 123.615784,48.843266 121.311958,48.631931 
	C121.062752,45.977959 120.852440,43.738186 120.600639,41.056572 
	C115.232262,41.056572 110.144432,41.056572 105.025803,41.025429 
	C104.994995,40.994289 104.933739,40.931656 104.933739,40.931656 
z"/>
<path fill="#B74646" opacity="1.000000" stroke="none" 
	d="
M88.982491,185.019928 
	C83.941498,185.030899 78.928467,185.012527 73.446426,184.986023 
	C72.977417,184.977890 73.002045,185.002151 73.004700,184.563538 
	C73.007362,181.919098 73.007362,179.713242 73.007362,176.998199 
	C69.941971,176.998199 67.554306,176.998199 65.166649,176.998199 
	C65.166649,174.538330 65.166649,172.078445 65.166649,169.009003 
	C62.489330,169.009003 60.237846,169.009003 57.544632,169.030441 
	C57.061577,166.641876 57.020252,164.231888 57.007568,161.364639 
	C57.036213,160.907394 57.093491,160.986389 57.555420,160.992050 
	C73.677773,161.054016 89.338196,161.110321 104.999100,161.623352 
	C104.939415,167.072189 104.879242,172.064301 104.386673,177.032532 
	C101.636787,176.950226 99.319305,176.891800 97.001282,176.394028 
	C97.000740,173.844635 97.000740,171.734573 97.000740,169.400940 
	C91.416107,169.400940 86.406448,169.400940 81.355026,169.400940 
	C81.355026,172.038651 81.355026,174.271484 81.355026,177.101669 
	C84.151733,177.101669 86.601830,177.101669 89.029976,177.535980 
	C89.027763,180.291107 89.047493,182.611923 89.067230,184.932755 
	C89.067230,184.932755 89.010452,184.990601 88.982491,185.019928 
z"/>
<path fill="#B74646" opacity="1.000000" stroke="none" 
	d="
M32.395485,73.000778 
	C32.833359,75.460602 32.833359,77.920105 32.833359,81.008995 
	C30.489744,81.008995 28.238028,81.008995 25.544609,81.030426 
	C25.102905,78.640526 25.102905,76.229187 25.102905,73.000458 
	C27.571224,73.000458 29.764416,73.000458 32.395485,73.000778 
z"/>
<path fill="#FFFFFF" opacity="1.000000" stroke="none" 
	d="
M169.039795,153.037735 
	C169.039795,150.615768 169.039795,148.193802 169.039795,145.005997 
	C171.453262,145.005997 173.792526,145.005997 176.585815,145.021851 
	C177.039825,145.037720 177.000732,145.000061 176.997406,145.426453 
	C176.966965,148.228134 176.939880,150.603439 176.912796,152.978729 
	C176.912796,152.978729 176.985443,152.985428 176.538498,152.986115 
	C173.715042,152.978546 171.338516,152.970276 168.981369,152.981049 
	C169.000732,153.000061 169.039795,153.037735 169.039795,153.037735 
z"/>
<path fill="#343951" opacity="1.000000" stroke="none" 
	d="
M56.987656,160.912079 
	C56.776802,160.927795 56.614632,160.946182 56.452202,160.948868 
	C47.540394,161.095856 49.151642,161.322464 49.011421,153.431946 
	C49.017948,152.981812 48.998398,153.001602 49.428009,153.003632 
	C52.184772,153.017105 54.511929,153.028549 56.910267,153.475830 
	C57.018799,156.269913 57.056145,158.628143 57.093491,160.986389 
	C57.093491,160.986389 57.036213,160.907394 56.987656,160.912079 
z"/>
<path fill="#FFFFFF" opacity="1.000000" stroke="none" 
	d="
M161.031128,153.035019 
	C163.411026,153.039169 165.780579,153.022598 168.594971,153.021881 
	C169.039795,153.037735 169.000732,153.000061 168.997406,153.426453 
	C168.966965,156.228134 168.939880,158.603439 168.912796,160.978729 
	C168.912796,160.978729 168.985443,160.985428 168.537933,160.986130 
	C165.710617,161.001343 163.330795,161.015854 160.971725,160.586884 
	C161.014343,157.775146 161.036209,155.406906 161.058090,153.038666 
	C161.058090,153.038666 161.020813,153.014282 161.031128,153.035019 
z"/>
<path fill="#B74646" opacity="1.000000" stroke="none" 
	d="
M33.014927,41.367188 
	C35.491428,40.912792 37.961609,40.912792 40.974041,40.912792 
	C40.974041,43.568127 40.974041,45.836834 40.903702,48.552223 
	C38.439312,48.998909 36.045261,48.998909 33.008606,48.998909 
	C33.008606,46.255260 33.008606,44.038425 33.014927,41.367188 
z"/>
<path fill="#B74646" opacity="1.000000" stroke="none" 
	d="
M25.066586,33.397346 
	C27.553070,32.948151 30.003214,32.948151 33.013248,32.948151 
	C33.013248,35.571575 33.013248,37.826012 33.050232,40.529602 
	C30.643036,40.978756 28.198858,40.978756 25.030249,40.978756 
	C25.030249,38.323971 25.030249,36.085255 25.066586,33.397346 
z"/>
<path fill="#B74646" opacity="1.000000" stroke="none" 
	d="
M161.045456,169.049301 
	C161.045456,171.453674 161.045456,173.858063 161.045456,177.015060 
	C158.349365,177.015060 156.144409,177.015060 153.465027,177.002289 
	C152.990616,176.989532 152.932755,176.932785 152.961227,176.492218 
	C153.007187,173.687775 153.024673,171.323914 153.016541,168.975464 
	C152.990921,168.990906 152.960068,169.042160 153.403748,169.024384 
	C156.209198,168.981995 158.570984,168.957382 160.961121,168.961716 
	C160.989502,168.990662 161.045456,169.049301 161.045456,169.049301 
z"/>
<path fill="#B74646" opacity="1.000000" stroke="none" 
	d="
M169.367767,160.985046 
	C168.939880,158.603439 168.966965,156.228134 168.978027,153.407440 
	C171.338516,152.970276 173.715042,152.978546 176.535156,152.949799 
	C176.978745,155.359909 176.978745,157.807022 176.978745,160.991379 
	C174.310318,160.991379 172.066528,160.991379 169.367767,160.985046 
z"/>
<path fill="#B74646" opacity="1.000000" stroke="none" 
	d="
M153.019928,177.017502 
	C153.049225,179.451050 153.049225,181.856628 153.049225,185.015305 
	C150.347382,185.015305 148.141205,185.015305 145.490234,185.032303 
	C145.045456,185.049301 144.989502,184.990662 144.989594,184.521057 
	C144.978729,181.687332 144.967773,179.323227 145.400818,176.976349 
	C148.207458,176.973328 150.570114,176.953064 152.932755,176.932800 
	C152.932755,176.932785 152.990616,176.989532 153.019928,177.017502 
z"/>
<path fill="#B74646" opacity="1.000000" stroke="none" 
	d="
M160.950989,161.030365 
	C163.330795,161.015854 165.710617,161.001343 168.534576,160.949799 
	C168.978745,163.345840 168.978745,165.778900 168.978745,169.015289 
	C166.375305,169.015289 164.155426,169.015289 161.490494,169.032288 
	C161.045456,169.049301 160.989502,168.990662 160.989594,168.521149 
	C161.007172,165.687790 161.024658,163.323929 161.016006,160.973282 
	C160.989868,160.986496 160.950989,161.030350 160.950989,161.030365 
z"/>
<path fill="#B74646" opacity="1.000000" stroke="none" 
	d="
M177.367188,152.985046 
	C176.939880,150.603439 176.966965,148.228134 176.978027,145.407440 
	C179.346924,144.983307 181.731857,145.004593 184.557831,145.096252 
	C184.998901,147.560669 184.998901,149.954727 184.998901,152.991379 
	C182.255264,152.991379 180.038422,152.991379 177.367188,152.985046 
z"/>
<path fill="#6C546F" opacity="1.000000" stroke="none" 
	d="
M65.096512,177.438248 
	C67.554306,176.998199 69.941971,176.998199 73.007362,176.998199 
	C73.007362,179.713242 73.007362,181.919098 73.016739,184.575531 
	C70.695366,185.017654 68.364632,185.009201 65.600266,185.001282 
	C65.119896,182.627304 65.073135,180.252808 65.096512,177.438248 
z"/>
<path fill="#343951" opacity="1.000000" stroke="none" 
	d="
M137.020569,185.008606 
	C132.012207,184.986511 126.989876,184.995499 121.503578,185.022308 
	C121.039619,185.040131 121.008270,185.008423 121.000015,184.525574 
	C121.006920,176.415588 121.022079,168.788437 121.496841,161.089767 
	C126.957680,161.065811 131.958908,161.113373 136.973114,161.599579 
	C136.957352,164.395523 136.928604,166.752792 136.455688,169.061279 
	C133.753952,169.012466 131.496384,169.012466 129.309235,169.012466 
	C129.309235,172.008362 129.309235,174.408127 129.309235,176.949005 
	C132.096497,176.949005 134.575668,176.949005 137.030579,177.397217 
	C136.984055,180.239380 136.961792,182.633331 136.939545,185.027267 
	C136.939545,185.027267 137.006577,185.039688 137.020569,185.008606 
z"/>
<path fill="#FFFFFF" opacity="1.000000" stroke="none" 
	d="
M89.528915,184.961334 
	C89.047493,182.611923 89.027763,180.291107 89.471664,177.492615 
	C92.290810,176.954407 94.646317,176.893890 97.001816,176.833374 
	C99.319305,176.891800 101.636787,176.950226 104.421127,177.067200 
	C104.887985,177.125748 104.974991,177.087769 104.985947,177.525360 
	C104.985069,180.321503 104.973244,182.680054 104.961418,185.038589 
	C104.961418,185.038589 105.002106,184.998688 105.022675,184.978973 
	C100.025696,184.969467 95.008148,184.979691 89.528915,184.961334 
z"/>
<path fill="#FFFFFF" opacity="1.000000" stroke="none" 
	d="
M137.384735,185.015778 
	C136.961792,182.633331 136.984055,180.239380 137.003754,177.422791 
	C137.001205,177.000122 136.948135,177.051849 137.396973,177.028915 
	C140.243393,177.016846 142.640991,177.027710 145.018250,177.018600 
	C144.997894,176.998627 144.956802,176.959106 144.956802,176.959106 
	C144.967773,179.323227 144.978729,181.687332 144.961227,184.492126 
	C142.565155,184.956604 140.197540,184.980438 137.384735,185.015778 
z"/>
<path fill="#6C546F" opacity="1.000000" stroke="none" 
	d="
M121.037231,161.161285 
	C121.022079,168.788437 121.006920,176.415588 120.984291,184.509796 
	C118.580963,184.996857 116.185112,185.016846 113.338913,185.067322 
	C112.888557,185.097809 112.953690,185.070908 112.966721,184.646149 
	C112.979752,181.978897 112.979752,179.736389 112.979752,177.087769 
	C109.844810,177.087769 107.409904,177.087769 104.974991,177.087769 
	C104.974991,177.087769 104.887985,177.125748 104.853531,177.091080 
	C104.879242,172.064301 104.939415,167.072189 105.461502,161.552933 
	C110.961342,161.070953 115.999290,161.116119 121.037231,161.161285 
z"/>
<path fill="#343951" opacity="1.000000" stroke="none" 
	d="
M104.985947,177.525360 
	C107.409904,177.087769 109.844810,177.087769 112.979752,177.087769 
	C112.979752,179.736389 112.979752,181.978897 112.961349,184.680878 
	C110.578766,185.095047 108.214584,185.049744 105.405914,185.021515 
	C104.973244,182.680054 104.985069,180.321503 104.985947,177.525360 
z"/>
<path fill="#B74646" opacity="1.000000" stroke="none" 
	d="
M41.622704,97.008537 
	C41.164879,89.217064 41.164879,81.421951 41.164879,73.268593 
	C43.674995,73.107979 46.077431,72.954254 48.825420,72.778419 
	C48.936890,70.245560 49.042877,67.837311 49.161942,65.131905 
	C51.724228,65.131905 54.002697,65.131905 56.775726,65.131905 
	C56.775726,62.430908 56.775726,60.032875 56.775726,57.264637 
	C59.646999,57.100677 62.054871,56.963181 64.791321,56.806919 
	C64.924400,54.265743 65.050430,51.859215 65.192863,49.139469 
	C70.366814,49.139469 75.309082,49.139469 80.735069,49.139469 
	C80.891327,46.445335 81.030579,44.044399 81.207741,40.989799 
	C88.818565,40.989799 96.412758,40.989799 104.470345,40.960728 
	C104.933739,40.931656 104.994995,40.994289 105.006386,41.489616 
	C104.987854,54.957943 104.957932,67.930946 104.928009,80.903946 
	C99.808220,80.903946 94.688431,80.903946 89.342407,80.903946 
	C89.109428,83.800301 88.927475,86.062416 88.704979,88.828468 
	C80.989540,88.828468 73.400955,88.828468 65.393143,88.828468 
	C65.133690,91.681068 64.916077,94.073654 64.649467,97.004906 
	C56.985439,97.004906 49.532986,97.004906 41.622704,97.008537 
M89.001099,69.276024 
	C89.393532,76.225243 93.868866,71.943916 96.645599,72.726990 
	C96.645599,67.192909 96.645599,62.304218 96.645599,57.283531 
	C94.052322,57.283531 91.815338,57.283531 89.000130,57.283531 
	C89.000130,61.142700 89.000130,64.739395 89.001099,69.276024 
M73.000000,73.473587 
	C73.000000,70.740204 73.000000,68.006813 73.000000,65.350723 
	C69.924812,65.350723 67.687607,65.350723 65.424408,65.350723 
	C65.424408,70.717995 65.424408,75.725212 65.424408,80.643570 
	C68.088799,80.643570 70.324348,80.643570 73.000000,80.643570 
	C73.000000,78.340836 73.000000,76.388329 73.000000,73.473587 
z"/>
<path fill="#FFFFFF" opacity="1.000000" stroke="none" 
	d="
M121.496841,161.089767 
	C115.999290,161.116119 110.961342,161.070953 105.461006,161.096207 
	C89.338196,161.110321 73.677773,161.054016 57.555420,160.992050 
	C57.056145,158.628143 57.018799,156.269913 56.978271,153.008987 
	C57.002758,144.417099 57.030426,136.727890 57.058090,129.038681 
	C57.058090,129.038681 57.001541,129.001480 57.463547,129.005264 
	C60.296570,128.952332 62.667583,128.895630 65.483734,128.910156 
	C68.146400,128.981384 70.363930,128.981384 73.164879,128.981384 
	C73.164879,131.920517 73.164879,134.454163 73.094826,137.450684 
	C73.024773,142.835022 73.024773,147.756470 73.024773,152.676086 
	C78.638596,152.676086 83.682983,152.676086 88.835136,152.676086 
	C88.835136,147.231537 88.835136,142.109619 88.908051,136.540558 
	C88.980972,133.858124 88.980972,131.622849 88.980972,128.846405 
	C91.919937,128.846405 94.414536,128.846405 96.973946,128.846405 
	C96.973946,125.853630 96.973946,123.410004 97.441956,120.980591 
	C102.912659,121.004845 107.915367,121.014900 112.954300,121.474884 
	C112.990540,124.190399 112.990540,126.455978 112.990540,128.832779 
	C115.956642,128.973938 118.372696,129.088928 121.164879,129.221832 
	C121.164879,132.045349 121.164879,134.516571 121.094826,137.450684 
	C121.024773,142.835022 121.024773,147.756470 121.024773,152.676086 
	C126.638603,152.676086 131.682983,152.676086 136.835144,152.676086 
	C136.835144,147.231537 136.835144,142.109619 136.908035,136.541351 
	C136.980927,133.820709 136.980927,131.546448 136.980927,129.140366 
	C140.004105,129.140366 142.473495,129.140366 144.948288,129.105652 
	C144.953674,129.070938 144.888519,129.097778 144.888519,129.097778 
	C144.931747,134.079102 144.974976,139.060440 145.021622,144.966644 
	C145.025024,150.885635 145.025024,155.879745 145.025024,161.160934 
	C141.844284,161.160934 139.402222,161.160934 136.960144,161.160934 
	C131.958908,161.113373 126.957680,161.065811 121.496841,161.089767 
z"/>
<path fill="#6C546F" opacity="1.000000" stroke="none" 
	d="
M105.400551,80.937912 
	C104.957932,67.930946 104.987854,54.957943 105.037186,41.520756 
	C110.144432,41.056572 115.232262,41.056572 120.600639,41.056572 
	C120.852440,43.738186 121.062752,45.977959 121.311958,48.631931 
	C123.615784,48.843266 125.856995,49.048855 128.616989,49.302032 
	C128.843643,51.621998 129.075119,53.991467 129.356781,56.874405 
	C134.416016,56.874405 139.301224,56.874405 145.006058,56.874405 
	C145.006058,59.633842 145.006058,61.867126 144.560150,64.550186 
	C141.873489,64.999954 139.632736,64.999954 137.380142,64.999954 
	C137.380142,70.756531 137.380142,75.643761 137.380142,80.649361 
	C139.992264,80.649361 142.221008,80.649361 144.999023,80.649361 
	C144.999023,75.201118 144.999023,70.091537 144.999023,64.981956 
	C147.451004,64.981956 149.902985,64.981956 152.607849,64.981956 
	C152.866531,67.774040 153.075317,70.027542 153.317688,72.643433 
	C155.689331,72.858704 157.943100,73.063278 160.968262,73.337868 
	C160.968262,80.949028 160.968262,88.530220 160.926682,96.583496 
	C155.910522,97.055580 150.935944,97.055580 145.449158,97.055580 
	C145.170624,94.382278 144.923447,92.009895 144.619034,89.088135 
	C136.878738,89.088135 129.318924,89.088135 121.414558,89.088135 
	C121.148438,86.307426 120.933365,84.060188 120.637802,80.971886 
	C115.707748,80.971886 110.790421,80.971886 105.400551,80.937912 
M121.000000,67.377411 
	C121.000000,64.105553 121.000000,60.833698 121.000000,57.478539 
	C117.988564,57.478539 115.648712,57.478539 113.422668,57.478539 
	C113.422668,62.854694 113.422668,67.745461 113.422668,72.787857 
	C115.960854,72.787857 118.076050,72.787857 120.628120,72.787857 
	C120.761047,71.192574 120.880440,69.759766 121.000000,67.377411 
z"/>
<path fill="#6C546F" opacity="1.000000" stroke="none" 
	d="
M136.973114,161.599579 
	C139.402222,161.160934 141.844284,161.160934 145.025024,161.160934 
	C145.025024,155.879745 145.025024,150.885635 145.092972,145.425781 
	C147.577316,144.960022 149.993713,144.960022 152.621384,144.960022 
	C152.880173,147.807999 153.082535,150.035065 153.353271,153.014648 
	C155.696304,153.014648 157.924332,153.014648 160.605225,153.026657 
	C161.036209,155.406906 161.014343,157.775146 160.971725,160.586868 
	C160.950989,161.030350 160.989868,160.986496 160.561966,160.990067 
	C157.793930,160.993637 155.453796,160.993637 152.960068,160.993637 
	C152.960068,164.195602 152.960068,166.618881 152.960068,169.042160 
	C152.960068,169.042160 152.990921,168.990906 152.573700,168.992264 
	C149.798309,169.004028 147.440170,169.014450 144.627365,169.016693 
	C141.735062,169.024750 139.297394,169.040985 136.894135,169.051849 
	C136.928528,169.046448 136.899841,169.110077 136.899841,169.110077 
	C136.928604,166.752792 136.957352,164.395523 136.973114,161.599579 
z"/>
<path fill="#6C546F" opacity="1.000000" stroke="none" 
	d="
M112.918068,121.024948 
	C107.915367,121.014900 102.912659,121.004845 97.473175,120.994492 
	C97.036385,120.994194 97.025589,121.062416 97.014839,120.618843 
	C96.966644,117.819687 96.929199,115.464104 96.973694,113.030182 
	C97.055626,112.951843 97.222961,112.798851 97.222961,112.798851 
	C104.774788,112.845306 112.326607,112.891754 120.411522,112.944939 
	C120.944611,112.951668 121.108513,113.108246 121.062790,113.539963 
	C121.050606,116.289207 121.084145,118.606728 120.662735,120.948288 
	C117.777870,120.989868 115.347969,121.007408 112.918068,121.024948 
z"/>
<path fill="#6C546F" opacity="1.000000" stroke="none" 
	d="
M56.604202,129.026550 
	C57.030426,136.727890 57.002758,144.417099 56.907085,152.573151 
	C54.511929,153.028549 52.184772,153.017105 49.418610,153.013031 
	C48.979603,145.280487 48.979603,137.540558 48.979603,129.014435 
	C51.677326,129.014435 53.913822,129.014435 56.604202,129.026550 
z"/>
<path fill="#6C546F" opacity="1.000000" stroke="none" 
	d="
M129.222916,112.798813 
	C131.717331,112.865875 134.211395,112.958893 136.706268,112.992661 
	C139.181107,113.026169 141.656754,113.000000 144.993591,113.000000 
	C144.993591,115.625854 144.993591,117.870743 144.997604,120.557022 
	C145.001617,120.998413 145.020401,120.979622 144.551224,120.987007 
	C139.015442,120.971031 133.948837,120.947670 128.931732,120.492371 
	C128.951416,117.743126 128.921585,115.425827 128.973694,113.030174 
	C129.055603,112.951820 129.222916,112.798813 129.222916,112.798813 
z"/>
<path fill="#6C546F" opacity="1.000000" stroke="none" 
	d="
M89.222954,104.798843 
	C91.515610,104.932755 93.808273,105.066658 96.704926,105.235840 
	C96.826195,107.500023 96.945328,109.724472 97.143707,112.373886 
	C97.222961,112.798851 97.055626,112.951843 96.531677,112.984436 
	C93.769295,113.017029 91.530861,113.017029 88.891754,113.017029 
	C88.891754,109.982964 88.891754,107.545738 88.973694,105.030167 
	C89.055626,104.951828 89.222954,104.798843 89.222954,104.798843 
z"/>
<path fill="#6C546F" opacity="1.000000" stroke="none" 
	d="
M120.860977,112.875168 
	C120.925133,110.487968 121.072914,108.177261 121.248055,105.438751 
	C123.690681,105.438751 126.042915,105.438751 128.760925,105.438751 
	C128.867050,107.715561 128.965652,109.831009 129.143585,112.372635 
	C129.222916,112.798813 129.055603,112.951820 128.543518,112.984459 
	C125.723793,113.047478 123.416153,113.077858 121.108513,113.108246 
	C121.108513,113.108246 120.944611,112.951668 120.860977,112.875168 
z"/>
<path fill="#6C546F" opacity="1.000000" stroke="none" 
	d="
M65.018234,121.017960 
	C65.014183,120.695366 65.007599,120.372787 65.006462,120.050186 
	C64.981918,113.088646 64.982025,113.088646 72.431679,112.943680 
	C72.944611,112.951668 73.108513,113.108246 73.062790,113.539963 
	C73.050606,116.289207 73.084145,118.606728 72.665909,120.948212 
	C69.802628,120.974655 67.391129,120.977135 64.989037,120.988998 
	C64.998451,120.998390 65.018234,121.017960 65.018234,121.017960 
z"/>
<path fill="#6C546F" opacity="1.000000" stroke="none" 
	d="
M65.038597,128.838928 
	C62.667583,128.895630 60.296570,128.952332 57.482128,129.033569 
	C57.038700,126.628662 57.038700,124.199242 57.038700,121.004890 
	C59.669212,121.004890 61.893299,121.004890 64.567810,121.011429 
	C65.018234,121.017960 64.998451,120.998390 64.996384,121.427994 
	C65.009071,124.184700 65.023834,126.511810 65.038597,128.838928 
z"/>
<path fill="#6C546F" opacity="1.000000" stroke="none" 
	d="
M72.860977,112.875168 
	C72.918297,110.507195 73.059242,108.215721 73.239044,105.292374 
	C75.479942,105.172707 77.699677,105.054169 80.432007,104.943649 
	C80.944603,104.951675 81.108521,105.108246 81.062775,105.550262 
	C81.017029,108.230705 81.017029,110.469139 81.017029,113.108246 
	C77.982964,113.108246 75.545738,113.108246 73.108513,113.108246 
	C73.108513,113.108246 72.944611,112.951668 72.860977,112.875168 
z"/>
<path fill="#6C546F" opacity="1.000000" stroke="none" 
	d="
M80.860977,104.875175 
	C80.925133,102.487968 81.072914,100.177261 81.248062,97.438751 
	C83.683243,97.438751 86.034325,97.438751 88.760910,97.438751 
	C88.867043,99.715599 88.965645,101.831047 89.143600,104.372665 
	C89.222954,104.798843 89.055626,104.951828 88.543518,104.984467 
	C85.723778,105.047485 83.416145,105.077866 81.108521,105.108246 
	C81.108521,105.108246 80.944603,104.951675 80.860977,104.875175 
z"/>
<path fill="#6C546F" opacity="1.000000" stroke="none" 
	d="
M144.991730,121.008186 
	C147.427826,121.017960 149.873825,121.017960 152.655472,121.017960 
	C152.655472,123.766800 152.655472,125.994102 152.655472,129.036697 
	C150.299927,129.036697 148.050278,129.036697 145.344574,129.067230 
	C144.888519,129.097778 144.953674,129.070938 144.966705,128.649811 
	C144.993301,125.812340 145.006851,123.395981 145.020401,120.979622 
	C145.020401,120.979622 145.001617,120.998413 144.991730,121.008186 
z"/>
<path fill="#6C546F" opacity="1.000000" stroke="none" 
	d="
M97.001282,176.394028 
	C94.646317,176.893890 92.290810,176.954407 89.493622,177.058304 
	C86.601830,177.101669 84.151733,177.101669 81.355026,177.101669 
	C81.355026,174.271484 81.355026,172.038651 81.355026,169.400940 
	C86.406448,169.400940 91.416107,169.400940 97.000740,169.400940 
	C97.000740,171.734573 97.000740,173.844635 97.001282,176.394028 
z"/>
<path fill="#FFFFFF" opacity="1.000000" stroke="none" 
	d="
M145.082016,169.024872 
	C147.440170,169.014450 149.798309,169.004028 152.599304,168.976837 
	C153.024673,171.323914 153.007187,173.687775 152.961227,176.492218 
	C150.570114,176.953064 148.207458,176.973328 145.400818,176.976349 
	C144.956802,176.959106 144.997894,176.998627 145.001175,176.572998 
	C145.030304,173.773193 145.056168,171.399033 145.082016,169.024872 
z"/>
<path fill="#FFFFFF" opacity="1.000000" stroke="none" 
	d="
M153.403748,169.024384 
	C152.960068,166.618881 152.960068,164.195602 152.960068,160.993637 
	C155.453796,160.993637 157.793930,160.993637 160.588104,160.976852 
	C161.024658,163.323929 161.007172,165.687790 160.961212,168.492218 
	C158.570984,168.957382 156.209198,168.981995 153.403748,169.024384 
z"/>
<path fill="#FFFFFF" opacity="1.000000" stroke="none" 
	d="
M137.028015,176.974564 
	C134.575668,176.949005 132.096497,176.949005 129.309235,176.949005 
	C129.309235,174.408127 129.309235,172.008362 129.309235,169.012466 
	C131.496384,169.012466 133.753952,169.012466 136.455688,169.061279 
	C136.899841,169.110077 136.928528,169.046448 136.956543,169.490448 
	C136.972427,172.306931 136.960281,174.679382 136.948135,177.051849 
	C136.948135,177.051849 137.001205,177.000122 137.028015,176.974564 
z"/>
<path fill="#343951" opacity="1.000000" stroke="none" 
	d="
M137.396973,177.028915 
	C136.960281,174.679382 136.972427,172.306931 136.922150,169.495850 
	C139.297394,169.040985 141.735062,169.024750 144.627365,169.016678 
	C145.056168,171.399033 145.030304,173.773193 145.021515,176.592972 
	C142.640991,177.027710 140.243393,177.016846 137.396973,177.028915 
z"/>
<path fill="#343951" opacity="1.000000" stroke="none" 
	d="
M89.000610,68.806061 
	C89.000130,64.739395 89.000130,61.142700 89.000130,57.283531 
	C91.815338,57.283531 94.052322,57.283531 96.645599,57.283531 
	C96.645599,62.304218 96.645599,67.192909 96.645599,72.726990 
	C93.868866,71.943916 89.393532,76.225243 89.000610,68.806061 
z"/>
<path fill="#343951" opacity="1.000000" stroke="none" 
	d="
M73.000000,73.954704 
	C73.000000,76.388329 73.000000,78.340836 73.000000,80.643570 
	C70.324348,80.643570 68.088799,80.643570 65.424408,80.643570 
	C65.424408,75.725212 65.424408,70.717995 65.424408,65.350723 
	C67.687607,65.350723 69.924812,65.350723 73.000000,65.350723 
	C73.000000,68.006813 73.000000,70.740204 73.000000,73.954704 
z"/>
<path fill="#343951" opacity="1.000000" stroke="none" 
	d="
M144.551224,120.987007 
	C145.006851,123.395981 144.993301,125.812340 144.961334,128.684540 
	C142.473495,129.140366 140.004105,129.140366 136.980927,129.140366 
	C136.980927,131.546448 136.980927,133.820709 136.452591,136.544861 
	C131.004456,136.992447 126.084671,136.990128 121.164879,136.987808 
	C121.164879,134.516571 121.164879,132.045349 121.164879,129.221832 
	C118.372696,129.088928 115.956642,128.973938 112.990540,128.832779 
	C112.990540,126.455978 112.990540,124.190399 112.954300,121.474884 
	C115.347969,121.007408 117.777870,120.989868 121.092880,120.981827 
	C124.279411,120.968987 126.580818,120.946648 128.882233,120.924309 
	C133.948837,120.947670 139.015442,120.971031 144.551224,120.987007 
z"/>
<path fill="#343951" opacity="1.000000" stroke="none" 
	d="
M65.483734,128.910156 
	C65.023834,126.511810 65.009071,124.184700 64.986969,121.418610 
	C67.391129,120.977135 69.802628,120.974655 73.126076,120.981888 
	C81.700539,121.015205 89.363068,121.038811 97.025589,121.062416 
	C97.025589,121.062416 97.036385,120.994194 97.005165,120.980286 
	C96.973946,123.410004 96.973946,125.853630 96.973946,128.846405 
	C94.414536,128.846405 91.919937,128.846405 88.980972,128.846405 
	C88.980972,131.622849 88.980972,133.858124 88.452621,136.544083 
	C83.004471,136.992432 78.084671,136.990112 73.164879,136.987808 
	C73.164879,134.454163 73.164879,131.920517 73.164879,128.981384 
	C70.363930,128.981384 68.146400,128.981384 65.483734,128.910156 
z"/>
<path fill="#B74646" opacity="1.000000" stroke="none" 
	d="
M121.094826,137.450684 
	C126.084671,136.990128 131.004456,136.992447 136.379700,136.991241 
	C136.835144,142.109619 136.835144,147.231537 136.835144,152.676086 
	C131.682983,152.676086 126.638603,152.676086 121.024773,152.676086 
	C121.024773,147.756470 121.024773,142.835022 121.094826,137.450684 
z"/>
<path fill="#B74646" opacity="1.000000" stroke="none" 
	d="
M73.094826,137.450684 
	C78.084671,136.990112 83.004471,136.992432 88.379700,136.991241 
	C88.835136,142.109619 88.835136,147.231537 88.835136,152.676086 
	C83.682983,152.676086 78.638596,152.676086 73.024773,152.676086 
	C73.024773,147.756470 73.024773,142.835022 73.094826,137.450684 
z"/>
<path fill="#343951" opacity="1.000000" stroke="none" 
	d="
M120.999916,67.852188 
	C120.880440,69.759766 120.761047,71.192574 120.628120,72.787857 
	C118.076050,72.787857 115.960854,72.787857 113.422668,72.787857 
	C113.422668,67.745461 113.422668,62.854694 113.422668,57.478539 
	C115.648712,57.478539 117.988564,57.478539 121.000000,57.478539 
	C121.000000,60.833698 121.000000,64.105553 120.999916,67.852188 
z"/>
<path fill="#343951" opacity="1.000000" stroke="none" 
	d="
M144.998901,64.991600 
	C144.999023,70.091537 144.999023,75.201118 144.999023,80.649361 
	C142.221008,80.649361 139.992264,80.649361 137.380142,80.649361 
	C137.380142,75.643761 137.380142,70.756531 137.380142,64.999954 
	C139.632736,64.999954 141.873489,64.999954 144.566162,65.000481 
	C145.018066,65.001007 144.998764,65.001244 144.998901,64.991600 
z"/>
<path fill="#FFFFFF" opacity="1.000000" stroke="none" 
	d="
M97.014839,120.618843 
	C89.363068,121.038811 81.700539,121.015205 73.577850,120.957924 
	C73.084145,118.606728 73.050606,116.289207 73.062790,113.539963 
	C75.545738,113.108246 77.982964,113.108246 81.017029,113.108246 
	C81.017029,110.469139 81.017029,108.230705 81.062775,105.550262 
	C83.416145,105.077866 85.723778,105.047485 88.461578,105.062805 
	C88.891754,107.545738 88.891754,109.982964 88.891754,113.017029 
	C91.530861,113.017029 93.769295,113.017029 96.449738,113.062775 
	C96.929199,115.464104 96.966644,117.819687 97.014839,120.618843 
z"/>
<path fill="#FFFFFF" opacity="1.000000" stroke="none" 
	d="
M128.931732,120.492371 
	C126.580818,120.946648 124.279411,120.968987 121.547844,120.957787 
	C121.084145,118.606728 121.050606,116.289207 121.062790,113.539963 
	C123.416153,113.077858 125.723793,113.047478 128.461609,113.062813 
	C128.921585,115.425827 128.951416,117.743126 128.931732,120.492371 
z"/>
</svg>